<svg xmlns="http://www.w3.org/2000/svg" width="30" height="30" viewBox="0 0 30 30" fill="none">
  <g clip-path="url(#clip0_13_109)">
    <path d="M1.27361 7.8922C1.37274 7.8908 1.37274 7.8908 1.47388 7.88937C1.54469 7.88905 1.61549 7.88874 1.68845 7.88841C1.79819 7.88762 1.79819 7.88762 1.91015 7.88681C2.06466 7.88596 2.21914 7.88539 2.37365 7.88522C2.57142 7.88491 2.76912 7.88269 2.96687 7.88002C3.15596 7.87786 3.34505 7.87778 3.53415 7.87743C3.60508 7.87628 3.676 7.87514 3.74908 7.87396C4.23667 7.87659 4.23667 7.87659 4.44119 8.04541C4.53736 8.2605 4.51553 8.38855 4.45311 8.61328C4.3606 8.73395 4.29541 8.78002 4.16014 8.84766C4.06534 8.85372 3.9703 8.85621 3.87531 8.8569C3.81606 8.8575 3.75681 8.8581 3.69576 8.85872C3.63155 8.85915 3.56735 8.85958 3.50119 8.86002C3.36619 8.86166 3.23119 8.86334 3.09618 8.86505C2.8826 8.86747 2.66901 8.86963 2.45542 8.87117C2.24979 8.87279 2.0442 8.87547 1.83859 8.87833C1.7745 8.87852 1.71041 8.87871 1.64438 8.8789C1.58494 8.87988 1.52551 8.88085 1.46427 8.88185C1.41193 8.88232 1.35959 8.88279 1.30566 8.88328C1.14518 8.91083 1.09292 8.95326 0.996079 9.08203C0.966638 9.21753 0.966638 9.21753 0.966096 9.36836C0.964019 9.42331 0.961942 9.47826 0.959802 9.53487C0.95848 9.59209 0.957158 9.6493 0.955796 9.70825C0.953795 9.76615 0.951793 9.82404 0.949731 9.88369C0.944897 10.0266 0.940846 10.1695 0.937486 10.3125C0.991457 10.3102 0.991457 10.3102 1.04652 10.3079C2.41804 10.257 2.41804 10.257 2.81249 10.6055C3.15549 10.9725 3.33257 11.3325 3.33983 11.8359C3.29374 12.2807 3.12744 12.5938 2.8015 12.9016C2.39938 13.2228 1.96113 13.2683 1.46117 13.2532C1.41045 13.2524 1.35973 13.2516 1.30747 13.2508C1.18413 13.2487 1.0608 13.2456 0.937486 13.2422C0.939715 13.7424 0.943192 14.2425 0.948261 14.7427C0.950576 14.975 0.952461 15.2072 0.953364 15.4395C0.954252 15.6636 0.956268 15.8878 0.959066 16.1119C0.959935 16.1974 0.960398 16.2829 0.960448 16.3684C0.960586 16.4882 0.962171 16.608 0.964093 16.7278C0.964614 16.796 0.965134 16.8641 0.96567 16.9344C1.00393 17.1546 1.05259 17.2102 1.23045 17.3438C1.39109 17.3667 1.52818 17.3753 1.68873 17.3732C1.73542 17.3736 1.78212 17.3739 1.83023 17.3743C1.98769 17.3751 2.14509 17.3743 2.30255 17.3735C2.41618 17.3738 2.52981 17.3742 2.64344 17.3746C2.95645 17.3756 3.26944 17.3751 3.58246 17.3744C3.91972 17.3739 4.25699 17.3747 4.59426 17.3753C5.25527 17.3764 5.91627 17.3761 6.57728 17.3755C7.11433 17.3749 7.65137 17.3749 8.18842 17.3751C8.26475 17.3751 8.34108 17.3752 8.41973 17.3752C8.57478 17.3753 8.72983 17.3754 8.88487 17.3755C10.2985 17.3761 11.7121 17.3754 13.1257 17.3742C14.4167 17.3731 15.7077 17.3732 16.9988 17.3743C18.4485 17.3756 19.8983 17.3761 21.3481 17.3753C21.5026 17.3753 21.6571 17.3752 21.8115 17.3751C21.8876 17.3751 21.9636 17.375 22.0419 17.375C22.5785 17.3748 23.1152 17.3751 23.6518 17.3757C24.3054 17.3764 24.9591 17.3762 25.6127 17.3749C25.9464 17.3743 26.2802 17.3741 26.6139 17.3748C26.9191 17.3755 27.2242 17.3752 27.5294 17.3739C27.6401 17.3736 27.7509 17.3738 27.8616 17.3744C28.0115 17.3751 28.1613 17.3743 28.3112 17.3732C28.3765 17.3741 28.3765 17.3741 28.4431 17.3749C28.6432 17.372 28.7514 17.3574 28.9134 17.2357C29.038 17.0618 29.0343 16.9406 29.0359 16.7278C29.0365 16.69 29.0371 16.6523 29.0377 16.6134C29.0394 16.4891 29.0395 16.3648 29.0396 16.2405C29.0405 16.1542 29.0415 16.0678 29.0425 15.9814C29.0451 15.7545 29.0463 15.5276 29.0471 15.3006C29.0483 15.0689 29.0508 14.8371 29.0531 14.6054C29.0575 14.151 29.0605 13.6966 29.0625 13.2422C28.954 13.2433 28.954 13.2433 28.8434 13.2444C28.7475 13.245 28.6516 13.2455 28.5557 13.2461C28.5082 13.2466 28.4607 13.2471 28.4117 13.2477C27.8626 13.25 27.4572 13.1607 27.0522 12.7705C26.7699 12.4451 26.655 12.0892 26.6601 11.6602C26.6992 11.1726 26.9277 10.8552 27.2754 10.5249C27.6477 10.2829 28.011 10.298 28.4399 10.3052C28.5298 10.306 28.5298 10.306 28.6214 10.3068C28.7685 10.3082 28.9155 10.3101 29.0625 10.3125C29.0577 10.111 29.0511 9.90966 29.0442 9.70825C29.0429 9.65104 29.0415 9.59382 29.0402 9.53487C29.0371 9.45245 29.0371 9.45245 29.0339 9.36836C29.0323 9.31773 29.0308 9.2671 29.0292 9.21494C28.9975 9.04855 28.9643 9.00629 28.8281 8.90625C28.6517 8.87971 28.6517 8.87971 28.4458 8.8842C28.3871 8.88382 28.3871 8.88382 28.3271 8.88344C28.1948 8.88282 28.0626 8.88345 27.9303 8.88407C27.8349 8.88388 27.7395 8.88361 27.6441 8.88327C27.3811 8.88255 27.1182 8.88292 26.8553 8.88347C26.572 8.88387 26.2888 8.88325 26.0055 8.88275C25.5144 8.88201 25.0233 8.8819 24.5322 8.88219C23.8218 8.88258 23.1115 8.88185 22.4011 8.88081C21.2483 8.87913 20.0954 8.8781 18.9425 8.87761C18.8735 8.87758 18.8045 8.87755 18.7333 8.87752C18.2433 8.87731 17.7532 8.87713 17.2632 8.87695C16.7036 8.87675 16.144 8.87654 15.5844 8.8763C15.5155 8.87627 15.4466 8.87624 15.3756 8.87621C14.2273 8.87569 13.079 8.8745 11.9306 8.87281C11.2219 8.8718 10.5132 8.87142 9.80441 8.87183C9.31892 8.87208 8.83344 8.87171 8.34795 8.87085C8.06761 8.87037 7.78729 8.8702 7.50695 8.87078C7.25048 8.87131 6.99403 8.87104 6.73756 8.87012C6.64462 8.86993 6.55168 8.87005 6.45875 8.87048C6.33268 8.87103 6.20666 8.87051 6.08059 8.86971C6.01049 8.86969 5.94039 8.86968 5.86817 8.86966C5.66465 8.8454 5.55372 8.79391 5.39061 8.67188C5.34094 8.56247 5.34094 8.56247 5.32835 8.44482C5.32008 8.38704 5.32008 8.38704 5.31165 8.32809C5.34302 8.13565 5.43 8.04693 5.56639 7.91016C5.74562 7.8735 5.74562 7.8735 5.96087 7.87345C6.00067 7.87304 6.04047 7.87264 6.08148 7.87222C6.21549 7.8712 6.34941 7.87228 6.48342 7.87335C6.58021 7.87305 6.67699 7.87263 6.77378 7.87209C7.04025 7.87098 7.30669 7.8717 7.57315 7.87272C7.86034 7.8735 8.14752 7.8726 8.43471 7.87191C8.99757 7.87083 9.56042 7.87133 10.1233 7.87238C10.5807 7.8732 11.0382 7.87343 11.4957 7.87323C11.5932 7.87319 11.5932 7.87319 11.6928 7.87315C11.8249 7.87309 11.957 7.87303 12.0891 7.87296C13.2584 7.87246 14.4277 7.87344 15.5969 7.87518C16.7318 7.87687 17.8666 7.87729 19.0014 7.87638C20.2365 7.8754 21.4716 7.87516 22.7067 7.87619C22.8384 7.8763 22.9701 7.87641 23.1018 7.87651C23.1991 7.87659 23.1991 7.87659 23.2982 7.87667C23.7551 7.877 24.2119 7.87681 24.6687 7.87642C25.2256 7.87597 25.7824 7.87636 26.3393 7.87784C26.6234 7.87857 26.9076 7.87893 27.1917 7.87828C27.4519 7.87769 27.7121 7.87818 27.9722 7.87954C28.0663 7.87984 28.1604 7.87975 28.2545 7.87922C28.794 7.87645 29.2225 7.87809 29.6498 8.24684C29.6759 8.27955 29.7021 8.31225 29.729 8.34595C29.7695 8.39478 29.7695 8.39478 29.8109 8.4446C30.0541 8.81711 30.0258 9.21982 30.0281 9.64831C30.0293 9.7771 30.0329 9.90567 30.0366 10.0344C30.0471 10.7239 30.0471 10.7239 29.8407 10.9795C29.6117 11.2023 29.3548 11.264 29.0423 11.266C28.9838 11.2672 28.9253 11.2684 28.865 11.2697C28.7427 11.2712 28.6205 11.2723 28.4983 11.2729C28.1436 11.2803 28.1436 11.2803 27.8206 11.415C27.6954 11.5424 27.6954 11.5424 27.6929 11.7517C27.7075 11.9518 27.7075 11.9518 27.7734 12.1289C27.9419 12.1851 28.0583 12.197 28.2339 12.2019C28.2897 12.2038 28.3454 12.2058 28.4028 12.2078C28.5194 12.2113 28.636 12.2147 28.7526 12.2178C29.5047 12.2447 29.5047 12.2447 29.7505 12.4475C29.9622 12.7396 30.0093 12.9012 30.0122 13.2556C30.0128 13.2992 30.0134 13.3429 30.014 13.3879C30.0157 13.5328 30.017 13.6777 30.0181 13.8226C30.0185 13.8722 30.0188 13.9218 30.0192 13.9729C30.0211 14.2357 30.0226 14.4985 30.0237 14.7613C30.0248 14.9782 30.0268 15.1951 30.0297 15.4119C30.0333 15.6742 30.0351 15.9365 30.0356 16.1988C30.0361 16.2984 30.0372 16.398 30.0389 16.4976C30.0481 17.0579 30.0499 17.5501 29.6484 17.9883C29.3612 18.2154 29.1008 18.3489 28.7292 18.3435C28.6819 18.343 28.6345 18.3424 28.5857 18.3419C28.5317 18.3409 28.5317 18.3409 28.4765 18.3398C28.4771 18.4027 28.4771 18.4027 28.4777 18.4669C28.4813 18.8626 28.4839 19.2583 28.4857 19.654C28.4866 19.8574 28.4878 20.0608 28.4898 20.2642C28.4921 20.4982 28.4929 20.7322 28.4937 20.9663C28.4946 21.0391 28.4955 21.1119 28.4965 21.1869C28.4965 21.255 28.4965 21.323 28.4965 21.3931C28.4971 21.4826 28.4971 21.4826 28.4977 21.574C28.4728 21.7675 28.4161 21.8751 28.3008 22.0313C28.0778 22.1799 27.8992 22.1649 27.6409 22.1637C27.566 22.1641 27.566 22.1641 27.4895 22.1644C27.3215 22.165 27.1535 22.1648 26.9855 22.1645C26.8653 22.1648 26.7451 22.1651 26.6249 22.1654C26.2979 22.1662 25.971 22.1663 25.644 22.1661C25.3712 22.166 25.0985 22.1663 24.8258 22.1666C24.1824 22.1673 23.5391 22.1673 22.8957 22.1669C22.2316 22.1666 21.5674 22.1673 20.9032 22.1686C20.3334 22.1696 19.7637 22.1699 19.1939 22.1697C18.8534 22.1696 18.5129 22.1698 18.1724 22.1706C17.8522 22.1713 17.532 22.1712 17.2118 22.1705C17.0942 22.1703 16.9766 22.1705 16.859 22.171C16.6986 22.1716 16.5382 22.1711 16.3778 22.1704C16.3312 22.1708 16.2845 22.1712 16.2364 22.1717C15.9707 22.1691 15.7966 22.1389 15.5859 21.9727C15.4992 21.7992 15.517 21.6217 15.515 21.4314C15.5133 21.3449 15.5116 21.2585 15.5099 21.1721C15.5075 21.036 15.5054 20.8998 15.5038 20.7637C15.5022 20.6322 15.4995 20.5008 15.4967 20.3693C15.4964 20.3087 15.4964 20.3087 15.4961 20.2469C15.4897 19.9934 15.4476 19.8311 15.293 19.6289C15.1284 19.5466 15.0065 19.5557 14.8242 19.5703C14.6405 19.6746 14.5991 19.7182 14.5312 19.9219C14.5243 20.0663 14.5204 20.2093 14.5189 20.3538C14.5172 20.4403 14.5156 20.5267 14.5138 20.6132C14.5114 20.7493 14.5093 20.8853 14.5077 21.0213C14.5061 21.1528 14.5034 21.2843 14.5006 21.4158C14.5004 21.4563 14.5002 21.4969 14.5 21.5386C14.4939 21.776 14.471 21.9225 14.2969 22.0898C14.0752 22.1637 13.8679 22.1571 13.637 22.1571C13.5871 22.1573 13.5371 22.1575 13.4856 22.1577C13.3176 22.1584 13.1496 22.1586 12.9816 22.1588C12.8614 22.1592 12.7412 22.1596 12.621 22.16C12.294 22.161 11.967 22.1616 11.6401 22.1621C11.4359 22.1624 11.2317 22.1628 11.0276 22.1631C10.3891 22.1642 9.75069 22.1651 9.11225 22.1656C8.3746 22.1661 7.63696 22.1677 6.89931 22.17C6.32954 22.1718 5.75978 22.1727 5.19 22.1729C4.8495 22.173 4.50901 22.1735 4.16851 22.175C3.84831 22.1764 3.52812 22.1766 3.20791 22.176C3.0903 22.176 2.97269 22.1764 2.85509 22.1772C2.69469 22.1782 2.53435 22.1778 2.37394 22.177C2.30393 22.178 2.30393 22.178 2.2325 22.179C2.01295 22.1764 1.88763 22.1566 1.70098 22.0368C1.51302 21.8429 1.51621 21.7306 1.51677 21.4662C1.51678 21.397 1.51678 21.3278 1.51678 21.2565C1.51709 21.1815 1.51739 21.1065 1.5177 21.0292C1.51778 20.9526 1.51787 20.8761 1.51795 20.7972C1.51818 20.5935 1.51875 20.3899 1.5194 20.1863C1.52 19.9785 1.52027 19.7708 1.52056 19.563C1.52119 19.1553 1.52219 18.7476 1.52342 18.3398C1.4873 18.3404 1.45117 18.3409 1.41395 18.3414C1.36651 18.3419 1.31908 18.3423 1.27021 18.3427C1.1997 18.3435 1.1997 18.3435 1.12777 18.3443C0.849409 18.3349 0.630205 18.2095 0.410142 18.0469C0.116338 17.7019 -0.00869573 17.423 -0.0103855 16.9751C-0.0107705 16.9311 -0.0111555 16.887 -0.0115522 16.8417C-0.0127093 16.6956 -0.013392 16.5496 -0.013976 16.4035C-0.0142148 16.3536 -0.0144536 16.3038 -0.0146997 16.2524C-0.0159224 15.9883 -0.0167602 15.7242 -0.0173091 15.4602C-0.017957 15.1876 -0.0199719 14.9151 -0.0222996 14.6425C-0.0238329 14.4328 -0.0243223 14.2231 -0.0245327 14.0134C-0.0248178 13.9129 -0.0254985 13.8125 -0.0265857 13.712C-0.0280149 13.5712 -0.0279583 13.4305 -0.0275516 13.2896C-0.0283022 13.2483 -0.0290528 13.207 -0.0298261 13.1645C-0.0267478 12.8712 0.0532215 12.7078 0.234361 12.4805C0.477872 12.2527 0.741571 12.2399 1.06406 12.2358C1.14829 12.2337 1.14829 12.2337 1.23423 12.2316C1.35156 12.229 1.4689 12.2272 1.58625 12.2261C1.917 12.2216 1.917 12.2216 2.20595 12.0786C2.31703 11.9026 2.32267 11.8059 2.28514 11.6016C2.18191 11.433 2.18191 11.433 1.99217 11.3086C1.76895 11.2683 1.54836 11.2703 1.32201 11.272C0.56956 11.272 0.56956 11.272 0.292954 11.0742C0.0356138 10.8133 -0.037082 10.6725 -0.0368642 10.2946C-0.0370055 10.2546 -0.0371469 10.2146 -0.0372925 10.1734C-0.0372354 10.0892 -0.0364562 10.005 -0.0349903 9.9208C-0.0329843 9.79319 -0.0337795 9.66581 -0.0349187 9.53819C-0.0344484 9.03762 -0.00457872 8.6558 0.336671 8.26035C0.369376 8.23421 0.402081 8.20808 0.435777 8.18115C0.468331 8.15411 0.500884 8.12707 0.534425 8.09921C0.774968 7.94219 0.988613 7.89527 1.27361 7.8922ZM2.51952 18.3398C2.51952 19.268 2.51952 20.1961 2.51952 21.1523C2.86756 21.1523 3.21561 21.1523 3.5742 21.1523C3.57639 21.0063 3.57859 20.8603 3.58084 20.7099C3.58355 20.5685 3.58655 20.4272 3.58958 20.2858C3.59153 20.1876 3.59317 20.0893 3.5945 19.991C3.59647 19.8498 3.59953 19.7086 3.60281 19.5673C3.60319 19.5234 3.60356 19.4794 3.60395 19.4342C3.61249 19.1319 3.61249 19.1319 3.70997 18.9862C3.88138 18.8812 4.02429 18.9019 4.21874 18.9258C4.34674 19.0159 4.34674 19.0159 4.45311 19.1602C4.4776 19.3205 4.48854 19.4584 4.48882 19.6188C4.48978 19.6627 4.49075 19.7066 4.49175 19.7518C4.49459 19.8915 4.49584 20.0312 4.49706 20.1709C4.49871 20.2658 4.50046 20.3607 4.50232 20.4556C4.50684 20.6879 4.50922 20.92 4.5117 21.1523C4.85975 21.1523 5.2078 21.1523 5.56639 21.1523C5.56866 20.9407 5.56866 20.9407 5.57097 20.7248C5.57322 20.5879 5.57587 20.451 5.57855 20.3141C5.5802 20.219 5.58145 20.124 5.58227 20.029C5.58353 19.8922 5.58626 19.7556 5.58928 19.6188C5.58935 19.5765 5.58942 19.5341 5.5895 19.4905C5.59527 19.2913 5.6118 19.178 5.73136 19.0159C5.91689 18.8853 6.04838 18.8976 6.26952 18.9258C6.36812 18.9862 6.36812 18.9862 6.4453 19.1016C6.46469 19.261 6.47392 19.4077 6.47528 19.5673C6.47633 19.6126 6.47739 19.6579 6.47847 19.7045C6.48164 19.849 6.48363 19.9934 6.48558 20.1379C6.48752 20.2359 6.48955 20.3339 6.49165 20.4319C6.49677 20.6721 6.50029 20.9122 6.50389 21.1523C6.85194 21.1523 7.19999 21.1523 7.55858 21.1523C7.56009 21.0113 7.5616 20.8702 7.56316 20.7248C7.56541 20.5879 7.56805 20.451 7.57074 20.3141C7.57239 20.219 7.57363 20.124 7.57446 20.029C7.57571 19.8922 7.57845 19.7556 7.58147 19.6188C7.58154 19.5765 7.58161 19.5341 7.58169 19.4905C7.58746 19.2913 7.60399 19.178 7.72355 19.0159C7.90908 18.8853 8.04056 18.8976 8.2617 18.9258C8.36031 18.9862 8.36031 18.9862 8.43748 19.1016C8.45688 19.261 8.46611 19.4077 8.46747 19.5673C8.46852 19.6126 8.46957 19.6579 8.47066 19.7045C8.47383 19.849 8.47581 19.9934 8.47777 20.1379C8.47971 20.2359 8.48173 20.3339 8.48383 20.4319C8.48896 20.6721 8.49248 20.9122 8.49608 21.1523C8.84413 21.1523 9.19217 21.1523 9.55077 21.1523C9.55507 20.9471 9.55507 20.9471 9.55946 20.7376C9.56263 20.6048 9.56599 20.4719 9.56936 20.3391C9.5716 20.2469 9.57365 20.1547 9.57549 20.0626C9.57817 19.9299 9.58156 19.7973 9.5851 19.6646C9.58578 19.6235 9.58645 19.5824 9.58715 19.5401C9.59352 19.3285 9.60406 19.1612 9.72655 18.9844C9.90525 18.895 10.0572 18.912 10.2539 18.9258C10.4072 19.0331 10.4279 19.0963 10.4883 19.2773C10.4972 19.4202 10.5033 19.5617 10.5068 19.7047C10.508 19.746 10.5092 19.7874 10.5105 19.83C10.5143 19.962 10.5178 20.0939 10.5212 20.2258C10.5238 20.3154 10.5263 20.4049 10.5289 20.4944C10.5352 20.7137 10.541 20.933 10.5469 21.1523C10.8756 21.1523 11.2043 21.1523 11.543 21.1523C11.5473 20.9544 11.5473 20.9544 11.5517 20.7525C11.5548 20.6241 11.5582 20.4957 11.5616 20.3674C11.5638 20.2784 11.5658 20.1895 11.5677 20.1005C11.5704 19.9724 11.5738 19.8442 11.5773 19.7161C11.5791 19.6391 11.581 19.5621 11.5829 19.4827C11.6004 19.2897 11.6291 19.1552 11.7187 18.9844C11.8956 18.8959 12.0511 18.9155 12.2461 18.9258C12.4219 19.043 12.4219 19.043 12.4805 19.2188C12.4894 19.3659 12.4955 19.5117 12.499 19.6589C12.5002 19.7016 12.5014 19.7442 12.5027 19.7882C12.5065 19.9243 12.51 20.0604 12.5134 20.1965C12.5159 20.2889 12.5185 20.3812 12.5211 20.4736C12.5274 20.6998 12.5332 20.9261 12.539 21.1523C12.8678 21.1523 13.1965 21.1523 13.5351 21.1523C13.5367 21.0527 13.5382 20.9531 13.5397 20.8504C13.543 20.7179 13.5464 20.5854 13.5498 20.4529C13.5506 20.3874 13.5515 20.322 13.5523 20.2546C13.5668 19.7606 13.6458 19.3819 13.9636 18.9954C14.3695 18.665 14.7147 18.5391 15.2403 18.585C15.6078 18.656 15.982 18.8522 16.1966 19.164C16.3415 19.4491 16.4134 19.7045 16.4248 20.0251C16.4285 20.1234 16.4285 20.1234 16.4322 20.2237C16.4345 20.2921 16.4368 20.3604 16.4392 20.4309C16.4417 20.5 16.4443 20.5691 16.4469 20.6402C16.4531 20.8109 16.459 20.9816 16.4648 21.1523C16.7935 21.1523 17.1223 21.1523 17.4609 21.1523C17.4652 20.9471 17.4652 20.9471 17.4696 20.7376C17.4728 20.6048 17.4761 20.4719 17.4795 20.3391C17.4818 20.2469 17.4838 20.1547 17.4856 20.0626C17.4883 19.9299 17.4917 19.7973 17.4953 19.6646C17.4959 19.6235 17.4966 19.5824 17.4973 19.5401C17.5037 19.3285 17.5142 19.1612 17.6367 18.9844C17.8154 18.895 17.9673 18.912 18.164 18.9258C18.3173 19.0331 18.3381 19.0963 18.3984 19.2773C18.4074 19.4202 18.4135 19.5617 18.417 19.7047C18.4182 19.746 18.4194 19.7874 18.4207 19.83C18.4245 19.962 18.4279 20.0939 18.4314 20.2258C18.4339 20.3154 18.4365 20.4049 18.439 20.4944C18.4454 20.7137 18.4512 20.933 18.457 21.1523C18.7857 21.1523 19.1144 21.1523 19.4531 21.1523C19.456 21.0204 19.4589 20.8884 19.4618 20.7525C19.465 20.6241 19.4683 20.4957 19.4717 20.3674C19.4739 20.2784 19.476 20.1895 19.4778 20.1005C19.4805 19.9724 19.4839 19.8442 19.4874 19.7161C19.4893 19.6391 19.4911 19.5621 19.493 19.4827C19.5106 19.2897 19.5392 19.1552 19.6289 18.9844C19.8058 18.8959 19.9613 18.9155 20.1562 18.9258C20.332 19.043 20.332 19.043 20.3906 19.2188C20.3996 19.3659 20.4057 19.5117 20.4091 19.6589C20.4104 19.7016 20.4116 19.7442 20.4128 19.7882C20.4167 19.9243 20.4201 20.0604 20.4236 20.1965C20.4261 20.2889 20.4287 20.3812 20.4312 20.4736C20.4376 20.6998 20.4434 20.9261 20.4492 21.1523C20.7973 21.1523 21.1453 21.1523 21.5039 21.1523C21.5061 21.0063 21.5083 20.8603 21.5105 20.7099C21.5132 20.5685 21.5162 20.4272 21.5193 20.2858C21.5212 20.1876 21.5229 20.0893 21.5242 19.991C21.5262 19.8498 21.5292 19.7086 21.5325 19.5673C21.5329 19.5234 21.5332 19.4794 21.5336 19.4342C21.5422 19.1319 21.5422 19.1319 21.6397 18.9862C21.8111 18.8812 21.954 18.9019 22.1484 18.9258C22.2764 19.0159 22.2764 19.0159 22.3828 19.1602C22.4073 19.3205 22.4182 19.4584 22.4185 19.6188C22.4195 19.6627 22.4204 19.7066 22.4214 19.7518C22.4243 19.8915 22.4255 20.0312 22.4267 20.1709C22.4284 20.2658 22.4301 20.3607 22.432 20.4556C22.4365 20.6879 22.4389 20.92 22.4414 21.1523C22.7894 21.1523 23.1375 21.1523 23.4961 21.1523C23.4983 21.0063 23.5005 20.8603 23.5027 20.7099C23.5054 20.5685 23.5084 20.4272 23.5115 20.2858C23.5134 20.1876 23.515 20.0893 23.5164 19.991C23.5183 19.8498 23.5214 19.7086 23.5247 19.5673C23.5251 19.5234 23.5254 19.4794 23.5258 19.4342C23.5344 19.1319 23.5344 19.1319 23.6318 18.9862C23.8033 18.8812 23.9462 18.9019 24.1406 18.9258C24.2686 19.0159 24.2686 19.0159 24.375 19.1602C24.3995 19.3205 24.4104 19.4584 24.4107 19.6188C24.4117 19.6627 24.4126 19.7066 24.4136 19.7518C24.4165 19.8915 24.4177 20.0312 24.4189 20.1709C24.4206 20.2658 24.4223 20.3607 24.4242 20.4556C24.4287 20.6879 24.4311 20.92 24.4336 21.1523C24.7816 21.1523 25.1297 21.1523 25.4883 21.1523C25.4898 21.0113 25.4913 20.8702 25.4928 20.7248C25.4951 20.5879 25.4977 20.451 25.5004 20.3141C25.5021 20.219 25.5033 20.124 25.5041 20.029C25.5054 19.8922 25.5081 19.7556 25.5112 19.6188C25.5112 19.5765 25.5113 19.5341 25.5114 19.4905C25.5171 19.2913 25.5337 19.178 25.6532 19.0159C25.8388 18.8853 25.9703 18.8976 26.1914 18.9258C26.29 18.9862 26.29 18.9862 26.3672 19.1016C26.3866 19.261 26.3958 19.4077 26.3972 19.5673C26.3987 19.6352 26.3987 19.6352 26.4003 19.7045C26.4035 19.849 26.4055 19.9934 26.4075 20.1379C26.4094 20.2359 26.4114 20.3339 26.4135 20.4319C26.4186 20.6721 26.4222 20.9122 26.4258 21.1523C26.7738 21.1523 27.1219 21.1523 27.4805 21.1523C27.4805 20.2242 27.4805 19.2961 27.4805 18.3398C19.2433 18.3398 11.0062 18.3398 2.51952 18.3398Z" fill="#A6A6A6"/>
    <path d="M22.055 9.57825C22.1327 9.57791 22.1327 9.57791 22.2119 9.57757C22.3209 9.57741 22.4298 9.57784 22.5387 9.57882C22.7046 9.58007 22.8704 9.57883 23.0363 9.57733C23.1425 9.57749 23.2488 9.57779 23.3551 9.57825C23.4288 9.57753 23.4288 9.57753 23.504 9.57681C23.8414 9.58214 24.0393 9.64868 24.3164 9.84375C24.6047 10.208 24.6182 10.4973 24.6188 10.9491C24.6192 11.0277 24.6192 11.0277 24.6197 11.108C24.6205 11.2813 24.6209 11.4547 24.6213 11.6281C24.6216 11.7488 24.6219 11.8695 24.6223 11.9903C24.6229 12.2434 24.6232 12.4966 24.6234 12.7498C24.6238 13.0736 24.6252 13.3973 24.6268 13.7211C24.6279 13.9705 24.6282 14.2199 24.6283 14.4694C24.6285 14.5887 24.629 14.708 24.6297 14.8273C24.6308 14.9946 24.6306 15.1619 24.6303 15.3292C24.6308 15.3781 24.6313 15.427 24.6319 15.4774C24.6295 15.82 24.5927 16.1761 24.3485 16.4393C24.0415 16.7011 23.8199 16.7099 23.4295 16.7132C23.376 16.7137 23.3225 16.7141 23.2674 16.7146C23.154 16.7154 23.0405 16.7161 22.9271 16.7165C22.7544 16.7175 22.5817 16.7201 22.409 16.7227C22.2987 16.7233 22.1885 16.7238 22.0782 16.7242C22.0011 16.7257 22.0011 16.7257 21.9226 16.7273C21.5768 16.7261 21.3708 16.6778 21.0937 16.4648C20.8577 16.1333 20.8254 15.8831 20.829 15.4821C20.8286 15.4262 20.8282 15.3702 20.8278 15.3125C20.8268 15.1284 20.8274 14.9443 20.8282 14.7601C20.8281 14.6316 20.8279 14.5032 20.8276 14.3747C20.8272 14.1057 20.8277 13.8368 20.8288 13.5679C20.8302 13.2237 20.8294 12.8795 20.828 12.5353C20.8271 12.2701 20.8274 12.0049 20.828 11.7397C20.8282 11.6128 20.828 11.4859 20.8274 11.359C20.8268 11.1815 20.8277 11.004 20.829 10.8265C20.8286 10.7743 20.8281 10.7222 20.8276 10.6685C20.8322 10.3258 20.8938 10.1244 21.0937 9.84375C21.4105 9.60292 21.6647 9.57448 22.055 9.57825ZM21.7969 10.5469C21.7969 12.2678 21.7969 13.9887 21.7969 15.7617C22.3963 15.7617 22.9957 15.7617 23.6133 15.7617C23.6133 14.0408 23.6133 12.3199 23.6133 10.5469C23.0139 10.5469 22.4144 10.5469 21.7969 10.5469Z" fill="#A6A6A6"/>
    <path d="M6.62201 9.59541C6.67411 9.59494 6.72621 9.59447 6.77989 9.59398C6.89022 9.59317 7.00054 9.59254 7.11087 9.59208C7.27883 9.59107 7.44673 9.5885 7.61467 9.58591C7.72201 9.58532 7.82936 9.58482 7.93671 9.58443C8.01153 9.58289 8.01153 9.58289 8.08786 9.58132C8.4296 9.58255 8.63203 9.63409 8.90625 9.84375C9.14232 10.1753 9.1746 10.4256 9.17095 10.8265C9.17136 10.8824 9.17177 10.9384 9.1722 10.9961C9.17322 11.1802 9.17255 11.3643 9.17175 11.5485C9.17191 11.6769 9.17214 11.8054 9.17243 11.9339C9.17278 12.2028 9.17228 12.4718 9.17118 12.7407C9.16985 13.0849 9.17061 13.4291 9.17202 13.7733C9.17287 14.0385 9.17259 14.3037 9.17199 14.5689C9.17183 14.6958 9.17202 14.8227 9.17257 14.9496C9.17317 15.1271 9.17225 15.3046 9.17095 15.4821C9.17143 15.5343 9.1719 15.5864 9.17239 15.6401C9.16775 15.9828 9.10615 16.1841 8.90625 16.4648C8.586 16.7096 8.32526 16.7341 7.93007 16.7303C7.87686 16.7306 7.82365 16.7308 7.76883 16.731C7.6569 16.7312 7.54496 16.7308 7.43304 16.7298C7.26225 16.7285 7.0916 16.7298 6.92081 16.7313C6.81168 16.7311 6.70254 16.7308 6.5934 16.7303C6.54267 16.7308 6.49194 16.7313 6.43968 16.7318C6.12066 16.7269 5.93588 16.6781 5.68359 16.4648C5.39889 16.0955 5.38179 15.8145 5.38118 15.3595C5.38089 15.3071 5.3806 15.2547 5.3803 15.2006C5.37945 15.0272 5.37905 14.8539 5.37872 14.6805C5.37839 14.5598 5.37805 14.4391 5.37771 14.3183C5.3771 14.0652 5.37675 13.812 5.37655 13.5588C5.37623 13.235 5.37482 12.9113 5.37315 12.5875C5.37206 12.3381 5.37176 12.0887 5.37167 11.8392C5.37149 11.7199 5.37102 11.6006 5.37025 11.4813C5.36924 11.314 5.36936 11.1467 5.36974 10.9794C5.3692 10.9305 5.36866 10.8816 5.3681 10.8312C5.37053 10.4881 5.40849 10.1354 5.64941 9.86926C5.95869 9.60111 6.23043 9.59878 6.62201 9.59541ZM6.38672 10.5469C6.38672 12.2678 6.38672 13.9887 6.38672 15.7617C6.98613 15.7617 7.58555 15.7617 8.20312 15.7617C8.20312 14.0408 8.20312 12.3199 8.20312 10.5469C7.60371 10.5469 7.0043 10.5469 6.38672 10.5469Z" fill="#A6A6A6"/>
    <path d="M16.8722 9.59747C16.9246 9.59714 16.9769 9.5968 17.0308 9.59646C17.1417 9.59591 17.2526 9.59552 17.3636 9.5953C17.5327 9.59473 17.7018 9.59291 17.8709 9.59106C17.9787 9.59068 18.0865 9.59037 18.1943 9.59015C18.2446 9.58942 18.295 9.5887 18.3469 9.58796C18.6836 9.5892 18.9392 9.63706 19.1979 9.87305C19.3749 10.1003 19.4601 10.2602 19.4613 10.547C19.4617 10.5946 19.462 10.6422 19.4624 10.6912C19.4625 10.7691 19.4625 10.7691 19.4626 10.8486C19.463 10.931 19.463 10.931 19.4634 11.015C19.4643 11.1968 19.4647 11.3787 19.465 11.5606C19.4654 11.6869 19.4657 11.8133 19.466 11.9396C19.4667 12.2046 19.467 12.4697 19.4672 12.7347C19.4675 13.0742 19.4689 13.4137 19.4706 13.7532C19.4717 14.0142 19.472 14.2752 19.4721 14.5363C19.4723 14.6614 19.4727 14.7866 19.4735 14.9117C19.4745 15.0869 19.4744 15.262 19.474 15.4372C19.4745 15.4888 19.4751 15.5404 19.4756 15.5936C19.4734 15.9297 19.4264 16.188 19.1874 16.444C18.8659 16.6899 18.6697 16.7099 18.2712 16.7132C18.2176 16.7137 18.1639 16.7141 18.1087 16.7146C17.995 16.7154 17.8813 16.7161 17.7676 16.7165C17.5943 16.7175 17.421 16.7201 17.2476 16.7227C17.1371 16.7233 17.0267 16.7238 16.9162 16.7242C16.8645 16.7252 16.8129 16.7262 16.7597 16.7273C16.4362 16.7261 16.2525 16.6807 15.9961 16.4648C15.7117 16.142 15.694 15.9356 15.6927 15.5145C15.6924 15.4584 15.692 15.4024 15.6916 15.3447C15.6904 15.1587 15.6897 14.9727 15.6892 14.7867C15.6889 14.7232 15.6887 14.6598 15.6884 14.5944C15.6872 14.2585 15.6864 13.9227 15.6858 13.5868C15.6852 13.2398 15.6832 12.8927 15.6808 12.5457C15.6793 12.279 15.6788 12.0123 15.6786 11.7455C15.6783 11.6176 15.6776 11.4897 15.6765 11.3618C15.6751 11.1826 15.6752 11.0036 15.6756 10.8245C15.6748 10.7717 15.6741 10.7189 15.6733 10.6645C15.676 10.342 15.7223 10.158 15.9375 9.90234C16.2554 9.62231 16.4573 9.5995 16.8722 9.59747ZM16.6406 10.5469C16.6406 12.2678 16.6406 13.9887 16.6406 15.7617C17.24 15.7617 17.8394 15.7617 18.457 15.7617C18.551 15.5738 18.5232 15.3696 18.5223 15.1633C18.5223 15.1135 18.5223 15.0638 18.5223 15.0126C18.5223 14.8477 18.5218 14.6828 18.5213 14.518C18.5212 14.4039 18.5212 14.2897 18.5211 14.1756C18.5209 13.8749 18.5203 13.5741 18.5196 13.2734C18.519 12.9667 18.5188 12.6599 18.5185 12.3532C18.5179 11.7511 18.5168 11.149 18.5156 10.5469C17.8969 10.5469 17.2781 10.5469 16.6406 10.5469Z" fill="#A6A6A6"/>
    <path d="M11.4849 9.599C11.5318 9.59825 11.5788 9.5975 11.6272 9.59672C11.6777 9.59629 11.7282 9.59586 11.7803 9.59541C11.8326 9.59494 11.8848 9.59447 11.9386 9.59398C12.0492 9.59317 12.1598 9.59254 12.2703 9.59208C12.4389 9.59107 12.6075 9.5885 12.7761 9.58591C12.8836 9.58532 12.9911 9.58482 13.0987 9.58443C13.1739 9.58289 13.1739 9.58289 13.2507 9.58132C13.5703 9.58247 13.7501 9.63172 14.0039 9.84375C14.21 10.0721 14.3036 10.2416 14.3055 10.5493C14.3059 10.5973 14.3063 10.6454 14.3068 10.6949C14.3069 10.7474 14.3071 10.7999 14.3072 10.854C14.3076 10.9095 14.308 10.9649 14.3084 11.0221C14.3096 11.2059 14.3102 11.3896 14.3108 11.5734C14.3111 11.6362 14.3113 11.6989 14.3116 11.7636C14.3128 12.0956 14.3136 12.4277 14.3142 12.7598C14.3148 13.1028 14.3168 13.4458 14.3192 13.7889C14.3207 14.0526 14.3212 14.3163 14.3214 14.5801C14.3217 14.7066 14.3224 14.833 14.3234 14.9595C14.3249 15.1365 14.3248 15.3134 14.3244 15.4905C14.3252 15.5426 14.3259 15.5948 14.3267 15.6485C14.324 15.9693 14.2762 16.1517 14.0625 16.4062C13.7416 16.689 13.534 16.7097 13.1149 16.7132C13.0613 16.7137 13.0077 16.7141 12.9524 16.7146C12.8387 16.7154 12.7251 16.7161 12.6114 16.7165C12.438 16.7175 12.2647 16.7201 12.0914 16.7227C11.9809 16.7233 11.8704 16.7238 11.7599 16.7242C11.7083 16.7252 11.6566 16.7262 11.6034 16.7273C11.2799 16.7261 11.0964 16.6805 10.8398 16.4648C10.5475 16.1409 10.5378 15.8831 10.5365 15.4609C10.5361 15.4061 10.5357 15.3513 10.5353 15.2948C10.5342 15.1132 10.5335 14.9317 10.5329 14.7501C10.5327 14.688 10.5324 14.626 10.5322 14.5621C10.531 14.2337 10.5301 13.9054 10.5296 13.5771C10.5289 13.2381 10.5269 12.8992 10.5246 12.5602C10.5231 12.2994 10.5226 12.0387 10.5224 11.7779C10.5221 11.6529 10.5214 11.528 10.5203 11.4031C10.5189 11.228 10.5189 11.0531 10.5193 10.878C10.5186 10.8266 10.5178 10.7752 10.5171 10.7223C10.5199 10.3806 10.5845 10.1835 10.7812 9.90234C11.0058 9.69421 11.1795 9.60328 11.4849 9.599ZM11.543 10.5469C11.449 10.7348 11.4768 10.939 11.4777 11.1453C11.4777 11.1951 11.4777 11.2448 11.4777 11.296C11.4777 11.4609 11.4782 11.6258 11.4786 11.7906C11.4788 11.9047 11.4788 12.0189 11.4789 12.133C11.4791 12.4337 11.4797 12.7345 11.4803 13.0352C11.4809 13.3419 11.4812 13.6487 11.4815 13.9554C11.4821 14.5575 11.4832 15.1596 11.4844 15.7617C12.1031 15.7617 12.7219 15.7617 13.3594 15.7617C13.3594 14.0408 13.3594 12.3199 13.3594 10.5469C12.76 10.5469 12.1605 10.5469 11.543 10.5469Z" fill="#A6A6A6"/>
  </g>
  <defs>
    <clipPath id="clip0_13_109">
      <rect width="30" height="30" fill="white"/>
    </clipPath>
  </defs>
</svg>