<svg xmlns="http://www.w3.org/2000/svg" xmlns:xlink="http://www.w3.org/1999/xlink" width="375" zoomAndPan="magnify" viewBox="0 0 281.25 281.249989" height="375" preserveAspectRatio="xMidYMid meet" version="1.0"><defs><clipPath id="e4d568a41d"><path d="M 1.710938 130.6875 L 278.847656 130.6875 L 278.847656 184.542969 L 1.710938 184.542969 Z M 1.710938 130.6875 " clip-rule="nonzero"/></clipPath></defs><path fill="#ffffff" d="M 103.824219 187.121094 C 96.730469 179.382812 93.1875 169.902344 93.1875 158.671875 C 93.1875 147.4375 96.730469 137.925781 103.824219 130.144531 C 110.910156 122.359375 119.929688 118.46875 130.867188 118.46875 C 140.910156 118.46875 149.183594 121.621094 155.691406 127.933594 L 155.691406 69.414062 L 181.847656 69.414062 L 181.847656 196.492188 L 155.984375 196.492188 L 155.984375 187.925781 L 155.691406 187.925781 C 149.183594 195.121094 140.910156 198.714844 130.867188 198.714844 C 119.929688 198.714844 110.910156 194.851562 103.824219 187.121094 Z M 126.0625 145.816406 C 122.664062 149.160156 120.96875 153.441406 120.96875 158.660156 C 120.96875 163.882812 122.59375 168.144531 125.839844 171.445312 C 129.089844 174.75 133.375 176.402344 138.699219 176.402344 C 143.816406 176.402344 148.023438 174.726562 151.320312 171.375 C 154.621094 168.027344 156.277344 163.789062 156.277344 158.660156 C 156.277344 153.441406 154.574219 149.160156 151.179688 145.816406 C 147.78125 142.46875 143.621094 140.789062 138.699219 140.789062 C 133.671875 140.789062 129.460938 142.46875 126.0625 145.816406 Z M 126.0625 145.816406 " fill-opacity="1" fill-rule="nonzero"/><g clip-path="url(#e4d568a41d)"><path fill="#38b6ff" d="M 1.75 162.484375 C 24.554688 148.695312 47.683594 144.199219 71.117188 144.597656 C 88.957031 144.894531 106.945312 147.976562 125.035156 151.863281 C 133.792969 153.742188 142.570312 155.839844 151.367188 157.917969 C 160.085938 159.96875 168.8125 162.0625 177.597656 163.769531 C 199.292969 168.175781 223.054688 169.707031 243.523438 163.128906 C 257.324219 158.691406 269.628906 150.605469 278.820312 137.160156 C 270.242188 151.355469 258.167969 160.296875 244.355469 165.511719 C 223.660156 173.328125 199.121094 172.742188 176.617188 169.199219 C 167.703125 167.710938 158.808594 165.945312 149.976562 163.972656 C 141.164062 162.007812 132.40625 159.882812 123.691406 157.832031 C 105.980469 153.683594 88.457031 149.964844 70.949219 148.847656 C 47.921875 147.382812 24.964844 150.253906 1.75 162.484375 Z M 37.078125 137.484375 C 48.941406 134.132812 59.179688 131.988281 68.855469 131.175781 C 73.347656 130.792969 77.6875 130.734375 81.960938 130.910156 C 84.894531 131.027344 87.792969 131.261719 90.671875 131.675781 C 97.691406 132.683594 104.605469 134.402344 111.828125 136.59375 C 121.175781 139.425781 130.90625 143.234375 142.207031 147.457031 C 127.875 144.28125 115.855469 141.8125 104.464844 139.964844 C 100.222656 139.269531 96.082031 138.699219 91.953125 138.152344 C 87.808594 137.613281 83.683594 137.125 79.460938 136.773438 C 74.0625 136.3125 68.542969 136.03125 62.640625 136.03125 C 54.847656 136.039062 46.523438 136.371094 37.078125 137.484375 Z M 143.941406 177.449219 C 154.214844 177.371094 164.425781 177.613281 174.605469 177.953125 C 181.414062 178.183594 188.160156 178.375 194.855469 178.445312 C 199.339844 178.5 203.792969 178.5 208.222656 178.40625 C 214.910156 178.265625 221.515625 177.894531 228.101562 176.863281 C 239.496094 175.066406 250.726562 171.601562 261.839844 164.917969 C 255.042969 170.316406 248.058594 174.402344 240.792969 177.40625 C 233.019531 180.625 225.03125 182.636719 216.855469 183.738281 C 211.964844 184.398438 207.019531 184.742188 202.039062 184.742188 C 197.152344 184.75 192.234375 184.421875 187.304688 183.933594 C 181.507812 183.363281 175.710938 182.535156 169.878906 181.617188 C 161.242188 180.257812 152.65625 178.640625 143.941406 177.449219 Z M 143.941406 177.449219 " fill-opacity="1" fill-rule="evenodd"/></g></svg>