<svg xmlns="http://www.w3.org/2000/svg" xmlns:xlink="http://www.w3.org/1999/xlink" width="500" zoomAndPan="magnify" viewBox="0 0 375 374.999991" height="500" preserveAspectRatio="xMidYMid meet" version="1.0"><defs><g/><clipPath id="8109911929"><path d="M 2.289062 151.382812 L 372.789062 151.382812 L 372.789062 223.382812 L 2.289062 223.382812 Z M 2.289062 151.382812 " clip-rule="nonzero"/></clipPath></defs><g fill="#000000" fill-opacity="1"><g transform="translate(120.033321, 239.358836)"><g><path d="M 18.765625 -12.53125 C 9.285156 -22.875 4.546875 -35.550781 4.546875 -50.5625 C 4.546875 -65.582031 9.285156 -78.296875 18.765625 -88.703125 C 28.242188 -99.109375 40.296875 -104.3125 54.921875 -104.3125 C 68.347656 -104.3125 79.410156 -100.09375 88.109375 -91.65625 L 88.109375 -169.890625 L 123.078125 -169.890625 L 123.078125 0 L 88.5 0 L 88.5 -11.453125 L 88.109375 -11.453125 C 79.410156 -1.835938 68.347656 2.96875 54.921875 2.96875 C 40.296875 2.96875 28.242188 -2.195312 18.765625 -12.53125 Z M 48.5 -67.75 C 43.957031 -63.28125 41.6875 -57.554688 41.6875 -50.578125 C 41.6875 -43.597656 43.859375 -37.898438 48.203125 -33.484375 C 52.546875 -29.066406 58.273438 -26.859375 65.390625 -26.859375 C 72.234375 -26.859375 77.859375 -29.097656 82.265625 -33.578125 C 86.679688 -38.054688 88.890625 -43.722656 88.890625 -50.578125 C 88.890625 -57.554688 86.617188 -63.28125 82.078125 -67.75 C 77.535156 -72.226562 71.972656 -74.46875 65.390625 -74.46875 C 58.671875 -74.46875 53.039062 -72.226562 48.5 -67.75 Z M 48.5 -67.75 "/></g></g></g><g clip-path="url(#8109911929)"><path fill="#38b6ff" d="M 2.339844 193.890625 C 32.828125 175.457031 63.75 169.449219 95.078125 169.980469 C 118.925781 170.378906 142.976562 174.496094 167.15625 179.691406 C 178.867188 182.207031 190.601562 185.011719 202.363281 187.789062 C 214.019531 190.53125 225.683594 193.328125 237.425781 195.609375 C 266.433594 201.503906 298.199219 203.550781 325.5625 194.753906 C 344.015625 188.820312 360.464844 178.011719 372.75 160.039062 C 361.28125 179.015625 345.140625 190.96875 326.675781 197.9375 C 299.007812 208.390625 266.203125 207.605469 236.117188 202.871094 C 224.199219 200.878906 212.308594 198.519531 200.503906 195.882812 C 188.722656 193.253906 177.011719 190.414062 165.359375 187.671875 C 141.683594 182.125 118.257812 177.15625 94.851562 175.664062 C 64.066406 173.703125 33.375 177.542969 2.339844 193.890625 Z M 49.570312 160.46875 C 65.429688 155.992188 79.117188 153.125 92.054688 152.039062 C 98.058594 151.527344 103.859375 151.445312 109.570312 151.683594 C 113.492188 151.839844 117.371094 152.152344 121.21875 152.707031 C 130.601562 154.050781 139.84375 156.347656 149.5 159.277344 C 162 163.066406 175.007812 168.15625 190.113281 173.800781 C 170.957031 169.554688 154.886719 166.257812 139.660156 163.785156 C 133.984375 162.855469 128.449219 162.09375 122.929688 161.363281 C 117.390625 160.644531 111.875 159.988281 106.230469 159.519531 C 99.011719 158.902344 91.636719 158.527344 83.746094 158.527344 C 73.324219 158.539062 62.195312 158.984375 49.570312 160.46875 Z M 192.433594 213.898438 C 206.167969 213.792969 219.816406 214.117188 233.425781 214.574219 C 242.53125 214.878906 251.546875 215.136719 260.5 215.230469 C 266.496094 215.304688 272.449219 215.304688 278.371094 215.179688 C 287.308594 214.992188 296.140625 214.492188 304.945312 213.113281 C 320.179688 210.714844 335.195312 206.082031 350.050781 197.144531 C 340.964844 204.363281 331.628906 209.828125 321.914062 213.84375 C 311.523438 218.144531 300.839844 220.832031 289.910156 222.304688 C 283.375 223.191406 276.761719 223.648438 270.101562 223.648438 C 263.570312 223.660156 256.996094 223.222656 250.40625 222.566406 C 242.65625 221.804688 234.90625 220.699219 227.109375 219.46875 C 215.5625 217.652344 204.082031 215.492188 192.433594 213.898438 Z M 192.433594 213.898438 " fill-opacity="1" fill-rule="evenodd"/></g></svg>