<svg xmlns="http://www.w3.org/2000/svg" xmlns:xlink="http://www.w3.org/1999/xlink" width="500" zoomAndPan="magnify" viewBox="0 0 375 374.999991" height="500" preserveAspectRatio="xMidYMid meet" version="1.0"><defs><g/><clipPath id="9fea733804"><path d="M 0 176 L 375 176 L 375 289.925781 L 0 289.925781 Z M 0 176 " clip-rule="nonzero"/></clipPath></defs><g fill="#000000" fill-opacity="1"><g transform="translate(80.820731, 315.031659)"><g><path d="M 29.671875 -19.828125 C 14.679688 -36.179688 7.1875 -56.226562 7.1875 -79.96875 C 7.1875 -103.707031 14.679688 -123.800781 29.671875 -140.25 C 44.660156 -156.695312 63.710938 -164.921875 86.828125 -164.921875 C 108.078125 -164.921875 125.570312 -158.257812 139.3125 -144.9375 L 139.3125 -268.625 L 194.59375 -268.625 L 194.59375 0 L 139.9375 0 L 139.9375 -18.109375 L 139.3125 -18.109375 C 125.570312 -2.910156 108.078125 4.6875 86.828125 4.6875 C 63.710938 4.6875 44.660156 -3.484375 29.671875 -19.828125 Z M 76.671875 -107.140625 C 69.492188 -100.054688 65.90625 -90.992188 65.90625 -79.953125 C 65.90625 -68.921875 69.34375 -59.914062 76.21875 -52.9375 C 83.09375 -45.96875 92.148438 -42.484375 103.390625 -42.484375 C 114.222656 -42.484375 123.125 -46.019531 130.09375 -53.09375 C 137.070312 -60.175781 140.5625 -69.132812 140.5625 -79.96875 C 140.5625 -91 136.96875 -100.054688 129.78125 -107.140625 C 122.601562 -114.222656 113.804688 -117.765625 103.390625 -117.765625 C 92.765625 -117.765625 83.859375 -114.222656 76.671875 -107.140625 Z M 76.671875 -107.140625 "/></g></g></g><g clip-path="url(#9fea733804)"><path fill="#38b6ff" d="M -105.28125 243.140625 C -57.070312 213.996094 -8.175781 204.496094 41.359375 205.335938 C 79.066406 205.964844 117.097656 212.476562 155.328125 220.691406 C 173.847656 224.667969 192.398438 229.105469 211 233.492188 C 229.429688 237.828125 247.871094 242.25 266.441406 245.863281 C 312.304688 255.179688 362.53125 258.414062 405.800781 244.511719 C 434.976562 235.125 460.988281 218.035156 480.414062 189.617188 C 462.28125 219.621094 436.757812 238.523438 407.5625 249.539062 C 363.8125 266.066406 311.941406 264.832031 264.371094 257.34375 C 245.523438 254.191406 226.726562 250.464844 208.058594 246.292969 C 189.433594 242.132812 170.910156 237.648438 152.488281 233.308594 C 115.054688 224.535156 78.015625 216.683594 41 214.324219 C -7.675781 211.226562 -56.207031 217.292969 -105.28125 243.140625 Z M -30.597656 190.292969 C -5.519531 183.21875 16.121094 178.683594 36.578125 176.96875 C 46.070312 176.160156 55.242188 176.027344 64.277344 176.40625 C 70.476562 176.652344 76.609375 177.148438 82.695312 178.023438 C 97.53125 180.148438 112.144531 183.777344 127.410156 188.414062 C 147.175781 194.402344 167.742188 202.449219 191.628906 211.375 C 161.339844 204.660156 135.929688 199.449219 111.851562 195.539062 C 102.875 194.070312 94.128906 192.867188 85.394531 191.710938 C 76.636719 190.574219 67.917969 189.535156 58.992188 188.792969 C 47.582031 187.820312 35.917969 187.226562 23.441406 187.226562 C 6.964844 187.242188 -10.636719 187.953125 -30.597656 190.292969 Z M 195.296875 274.777344 C 217.011719 274.613281 238.59375 275.121094 260.117188 275.847656 C 274.511719 276.328125 288.769531 276.738281 302.925781 276.886719 C 312.40625 277.003906 321.816406 277.003906 331.179688 276.804688 C 345.3125 276.507812 359.28125 275.714844 373.199219 273.539062 C 397.289062 269.746094 421.035156 262.421875 444.519531 248.289062 C 430.152344 259.699219 415.394531 268.34375 400.035156 274.695312 C 383.601562 281.488281 366.707031 285.746094 349.429688 288.070312 C 339.097656 289.472656 328.636719 290.199219 318.105469 290.199219 C 307.777344 290.214844 297.386719 289.523438 286.964844 288.484375 C 274.707031 287.277344 262.453125 285.53125 250.128906 283.585938 C 231.867188 280.714844 213.714844 277.300781 195.296875 274.777344 Z M 195.296875 274.777344 " fill-opacity="1" fill-rule="evenodd"/></g></svg>